name rise36.2859peak64.2979fall75.1499.mot
datacolumns 19
datarows 24
range 18.29159400000000 18.32993400000000
endheader
time	ground_force1_vx	ground_force1_vy	ground_force1_vz	ground_force1_px	ground_force1_py	ground_force1_pz	ground_force2_vx	ground_force2_vy	ground_force2_vz	ground_force2_px	ground_force2_py	ground_force2_pz	ground_torque1_x	ground_torque1_y	ground_torque1_z	ground_torque2_x	ground_torque2_y	ground_torque2_z	
18.29159400000000	62.33391500000000	764.76308300000005	55.65213800000000	0.44989000000000	0.00000000000000	0.09286800000000	0.00000000000000	0.00000000000000	0.00000000000000	0.00000000000000	0.00000000000000	0.00000000000000	0.00000000000000	36.78388100000000	0.00000000000000	0.00000000000000	0.00000000000000	0.00000000000000	
18.29326200000000	61.84557200000000	767.99049800000000	55.86835000000000	0.44887200000000	0.00000000000000	0.09287500000000	0.00000000000000	0.00000000000000	0.00000000000000	0.00000000000000	0.00000000000000	0.00000000000000	0.00000000000000	36.92236500000000	0.00000000000000	0.00000000000000	0.00000000000000	0.00000000000000	
18.29492800000000	61.35360300000000	771.08122700000001	56.08165400000000	0.44785500000000	0.00000000000000	0.09288100000000	0.00000000000000	0.00000000000000	0.00000000000000	0.00000000000000	0.00000000000000	0.00000000000000	0.00000000000000	37.05910000000000	0.00000000000000	0.00000000000000	0.00000000000000	0.00000000000000	
18.29659300000000	60.85826900000000	774.03321600000004	56.29176700000000	0.44683800000000	0.00000000000000	0.09288800000000	0.00000000000000	0.00000000000000	0.00000000000000	0.00000000000000	0.00000000000000	0.00000000000000	0.00000000000000	37.19391100000000	0.00000000000000	0.00000000000000	0.00000000000000	0.00000000000000	
18.29826600000000	60.35979000000000	776.84451200000001	56.49834100000000	0.44582200000000	0.00000000000000	0.09289500000000	0.00000000000000	0.00000000000000	0.00000000000000	0.00000000000000	0.00000000000000	0.00000000000000	0.00000000000000	37.32656900000000	0.00000000000000	0.00000000000000	0.00000000000000	0.00000000000000	
18.29993100000000	59.85834100000000	779.51327000000003	56.70097500000000	0.44480800000000	0.00000000000000	0.09290100000000	0.00000000000000	0.00000000000000	0.00000000000000	0.00000000000000	0.00000000000000	0.00000000000000	0.00000000000000	37.45680200000000	0.00000000000000	0.00000000000000	0.00000000000000	0.00000000000000	
18.30159600000000	59.35406100000000	782.03777000000002	56.89921400000000	0.44379500000000	0.00000000000000	0.09290700000000	0.00000000000000	0.00000000000000	0.00000000000000	0.00000000000000	0.00000000000000	0.00000000000000	0.00000000000000	37.58429300000000	0.00000000000000	0.00000000000000	0.00000000000000	0.00000000000000	
18.30326100000000	58.84705500000000	784.41642899999999	57.09256000000000	0.44278400000000	0.00000000000000	0.09291300000000	0.00000000000000	0.00000000000000	0.00000000000000	0.00000000000000	0.00000000000000	0.00000000000000	0.00000000000000	37.70868800000000	0.00000000000000	0.00000000000000	0.00000000000000	0.00000000000000	
18.30492800000000	58.33739500000000	786.64781200000004	57.28047100000000	0.44177500000000	0.00000000000000	0.09291800000000	0.00000000000000	0.00000000000000	0.00000000000000	0.00000000000000	0.00000000000000	0.00000000000000	0.00000000000000	37.82959900000000	0.00000000000000	0.00000000000000	0.00000000000000	0.00000000000000	
18.30660100000000	57.82512600000000	788.73064299999999	57.46237200000000	0.44076900000000	0.00000000000000	0.09292200000000	0.00000000000000	0.00000000000000	0.00000000000000	0.00000000000000	0.00000000000000	0.00000000000000	0.00000000000000	37.94660800000000	0.00000000000000	0.00000000000000	0.00000000000000	0.00000000000000	
18.30826400000000	57.31026900000000	790.66381999999999	57.63765800000000	0.43976500000000	0.00000000000000	0.09292600000000	0.00000000000000	0.00000000000000	0.00000000000000	0.00000000000000	0.00000000000000	0.00000000000000	0.00000000000000	38.05927500000000	0.00000000000000	0.00000000000000	0.00000000000000	0.00000000000000	
18.30994700000000	56.79282300000000	792.44642199999998	57.80570000000000	0.43876300000000	0.00000000000000	0.09292900000000	0.00000000000000	0.00000000000000	0.00000000000000	0.00000000000000	0.00000000000000	0.00000000000000	0.00000000000000	38.16713500000000	0.00000000000000	0.00000000000000	0.00000000000000	0.00000000000000	
18.31159600000000	56.27277200000000	794.07772000000000	57.96585500000000	0.43776400000000	0.00000000000000	0.09293000000000	0.00000000000000	0.00000000000000	0.00000000000000	0.00000000000000	0.00000000000000	0.00000000000000	0.00000000000000	38.26971200000000	0.00000000000000	0.00000000000000	0.00000000000000	0.00000000000000	
18.31326100000000	55.75008600000000	795.55718999999999	58.11746600000000	0.43676800000000	0.00000000000000	0.09293100000000	0.00000000000000	0.00000000000000	0.00000000000000	0.00000000000000	0.00000000000000	0.00000000000000	0.00000000000000	38.36651800000000	0.00000000000000	0.00000000000000	0.00000000000000	0.00000000000000	
18.31492600000000	55.22472600000000	796.88451499999996	58.25987100000000	0.43577500000000	0.00000000000000	0.09293000000000	0.00000000000000	0.00000000000000	0.00000000000000	0.00000000000000	0.00000000000000	0.00000000000000	0.00000000000000	38.45705900000000	0.00000000000000	0.00000000000000	0.00000000000000	0.00000000000000	
18.31659900000000	54.69664600000000	798.05959900000005	58.39241100000000	0.43478400000000	0.00000000000000	0.09292700000000	0.00000000000000	0.00000000000000	0.00000000000000	0.00000000000000	0.00000000000000	0.00000000000000	0.00000000000000	38.54083900000000	0.00000000000000	0.00000000000000	0.00000000000000	0.00000000000000	
18.31826400000000	54.16579700000000	799.08257200000003	58.51443200000000	0.43379600000000	0.00000000000000	0.09292400000000	0.00000000000000	0.00000000000000	0.00000000000000	0.00000000000000	0.00000000000000	0.00000000000000	0.00000000000000	38.61736700000000	0.00000000000000	0.00000000000000	0.00000000000000	0.00000000000000	
18.31992800000000	53.63213100000000	799.95379300000002	58.62529400000000	0.43281100000000	0.00000000000000	0.09291800000000	0.00000000000000	0.00000000000000	0.00000000000000	0.00000000000000	0.00000000000000	0.00000000000000	0.00000000000000	38.68615900000000	0.00000000000000	0.00000000000000	0.00000000000000	0.00000000000000	
18.32160000000000	53.09560500000000	800.67386099999999	58.72437500000000	0.43182800000000	0.00000000000000	0.09291100000000	0.00000000000000	0.00000000000000	0.00000000000000	0.00000000000000	0.00000000000000	0.00000000000000	0.00000000000000	38.74674100000000	0.00000000000000	0.00000000000000	0.00000000000000	0.00000000000000	
18.32326600000000	52.55618300000000	801.24361499999998	58.81107600000000	0.43084700000000	0.00000000000000	0.09290200000000	0.00000000000000	0.00000000000000	0.00000000000000	0.00000000000000	0.00000000000000	0.00000000000000	0.00000000000000	38.79865800000000	0.00000000000000	0.00000000000000	0.00000000000000	0.00000000000000	
18.32492700000000	52.01383600000000	801.66414099999997	58.88482700000000	0.42986800000000	0.00000000000000	0.09289100000000	0.00000000000000	0.00000000000000	0.00000000000000	0.00000000000000	0.00000000000000	0.00000000000000	0.00000000000000	38.84147200000000	0.00000000000000	0.00000000000000	0.00000000000000	0.00000000000000	
18.32659800000000	51.46855200000000	801.93677000000002	58.94509100000000	0.42889100000000	0.00000000000000	0.09287800000000	0.00000000000000	0.00000000000000	0.00000000000000	0.00000000000000	0.00000000000000	0.00000000000000	0.00000000000000	38.87477100000000	0.00000000000000	0.00000000000000	0.00000000000000	0.00000000000000	
18.32826000000000	50.92033000000000	802.06308200000001	58.99137100000000	0.42791600000000	0.00000000000000	0.09286300000000	0.00000000000000	0.00000000000000	0.00000000000000	0.00000000000000	0.00000000000000	0.00000000000000	0.00000000000000	38.89816800000000	0.00000000000000	0.00000000000000	0.00000000000000	0.00000000000000	
18.32993400000000	50.36918900000000	802.04490699999997	59.02320800000000	0.42694300000000	0.00000000000000	0.09284500000000	0.00000000000000	0.00000000000000	0.00000000000000	0.00000000000000	0.00000000000000	0.00000000000000	0.00000000000000	38.91130500000000	0.00000000000000	0.00000000000000	0.00000000000000	0.00000000000000	
